<svg width="25" height="25" viewBox="0 0 25 25" fill="none" xmlns="http://www.w3.org/2000/svg">
<path d="M17.3169 12.7315V11.1289C17.3169 8.7909 15.7629 6.80932 13.6336 6.1621V5.43649C13.6336 4.60564 12.9577 3.92969 12.1268 3.92969C11.296 3.92969 10.62 4.60564 10.62 5.43649V6.1621C8.49075 6.80932 6.93673 8.79087 6.93673 11.1289V12.7315C6.93673 14.7852 6.15393 16.7325 4.73254 18.2148C4.59325 18.36 4.5541 18.5744 4.63306 18.7595C4.71202 18.9446 4.89384 19.0647 5.09508 19.0647H9.66602C9.89934 20.2096 10.9141 21.0738 12.1268 21.0738C13.3396 21.0738 14.3543 20.2096 14.5876 19.0647H19.1586C19.3598 19.0647 19.5416 18.9446 19.6206 18.7595C19.6995 18.5744 19.6604 18.36 19.5211 18.2148C18.0997 16.7325 17.3169 14.7851 17.3169 12.7315ZM11.6246 5.43649C11.6246 5.15954 11.8499 4.93422 12.1268 4.93422C12.4038 4.93422 12.6291 5.15954 12.6291 5.43649V5.96314C12.4638 5.9472 12.2963 5.93876 12.1268 5.93876C11.9574 5.93876 11.7899 5.9472 11.6246 5.96314V5.43649ZM12.1268 20.0692C11.472 20.0692 10.9138 19.6493 10.7064 19.0647H13.5472C13.3399 19.6493 12.7816 20.0692 12.1268 20.0692ZM6.17763 18.0602C7.3215 16.5268 7.94126 14.6713 7.94126 12.7315V11.1289C7.94126 8.82094 9.81891 6.94329 12.1268 6.94329C14.4347 6.94329 16.3124 8.82094 16.3124 11.1289V12.7315C16.3124 14.6713 16.9322 16.5268 18.0761 18.0602H6.17763Z" fill="#757575"/>
<path d="M18.6562 11.1288C18.6562 11.4062 18.8811 11.6311 19.1585 11.6311C19.4359 11.6311 19.6608 11.4062 19.6608 11.1288C19.6608 9.11637 18.8771 7.22439 17.4541 5.8014C17.258 5.60528 16.9399 5.60525 16.7438 5.8014C16.5476 5.99755 16.5476 6.31555 16.7438 6.51171C17.9771 7.74497 18.6562 9.38468 18.6562 11.1288Z" fill="#757575"/>
<path d="M5.09504 11.631C5.37243 11.631 5.59731 11.4061 5.59731 11.1288C5.59731 9.38469 6.27651 7.74499 7.50974 6.51172C7.7059 6.31557 7.7059 5.99756 7.50974 5.80141C7.31362 5.60526 6.99559 5.60526 6.79944 5.80141C5.37644 7.2244 4.59277 9.11634 4.59277 11.1288C4.59277 11.4061 4.81766 11.631 5.09504 11.631Z" fill="#757575"/>
</svg>
