<svg width="15" height="15" viewBox="0 0 15 15" fill="none" xmlns="http://www.w3.org/2000/svg">
<path fill-rule="evenodd" clip-rule="evenodd" d="M13.5391 3.11187L13.54 3.11281C14.2007 3.83194 14.2275 4.9754 13.5987 5.66073L5.82811 14.1072C5.54742 14.4123 5.17517 14.601 4.7796 14.6404L1.17803 14.9962C1.15212 14.9991 1.12621 15 1.09944 15C0.872286 15 0.652047 14.9024 0.48881 14.7249C0.307436 14.5278 0.216749 14.2536 0.239205 13.9767L0.566542 10.0619C0.602816 9.63283 0.777281 9.22727 1.05884 8.92215L8.82856 0.476635C9.43487 -0.185225 10.5343 -0.152367 11.1743 0.541413L13.5391 3.11187ZM8.28784 3.71939L10.6152 6.24947L12.2966 4.4188L9.97009 1.88965L8.28784 3.71939Z" fill="#289767"/>
<mask id="mask0_139_4820" style="mask-type:luminance" maskUnits="userSpaceOnUse" x="0" y="0" width="15" height="15">
<path fill-rule="evenodd" clip-rule="evenodd" d="M13.5391 3.11187L13.54 3.11281C14.2007 3.83194 14.2275 4.9754 13.5987 5.66073L5.82811 14.1072C5.54742 14.4123 5.17517 14.601 4.7796 14.6404L1.17803 14.9962C1.15212 14.9991 1.12621 15 1.09944 15C0.872286 15 0.652047 14.9024 0.48881 14.7249C0.307436 14.5278 0.216749 14.2536 0.239205 13.9767L0.566542 10.0619C0.602816 9.63283 0.777281 9.22727 1.05884 8.92215L8.82856 0.476635C9.43487 -0.185225 10.5343 -0.152367 11.1743 0.541413L13.5391 3.11187ZM8.28784 3.71939L10.6152 6.24947L12.2966 4.4188L9.97009 1.88965L8.28784 3.71939Z" fill="white"/>
</mask>
<g mask="url(#mask0_139_4820)">
</g>
</svg>
