<svg width="14" height="15" viewBox="0 0 14 15" fill="none" xmlns="http://www.w3.org/2000/svg">
<path d="M11.8502 1.875H9.14998V1.40625C9.14998 0.62959 8.49058 0 7.67715 0H5.71337C4.89994 0 4.24054 0.62959 4.24054 1.40625V1.875H1.54035C0.862508 1.875 0.312988 2.39968 0.312988 3.04688V3.98438C0.312988 4.24327 0.532778 4.45312 0.803932 4.45312H12.5866C12.8577 4.45312 13.0775 4.24327 13.0775 3.98438V3.04688C13.0775 2.39968 12.528 1.875 11.8502 1.875ZM5.22243 1.40625C5.22243 1.14785 5.44274 0.9375 5.71337 0.9375H7.67715C7.94778 0.9375 8.16809 1.14785 8.16809 1.40625V1.875H5.22243V1.40625Z" fill="#D15E2A"/>
<path d="M1.24521 5.39062C1.15761 5.39062 1.0878 5.46053 1.09197 5.54408L1.497 13.6605C1.53444 14.4117 2.18064 15 2.96799 15H10.4236C11.2109 15 11.8571 14.4117 11.8946 13.6605L12.2996 5.54408C12.3038 5.46053 12.234 5.39062 12.1464 5.39062H1.24521ZM8.65957 6.5625C8.65957 6.30352 8.87926 6.09375 9.15051 6.09375C9.42176 6.09375 9.64145 6.30352 9.64145 6.5625V12.6562C9.64145 12.9152 9.42176 13.125 9.15051 13.125C8.87926 13.125 8.65957 12.9152 8.65957 12.6562V6.5625ZM6.20485 6.5625C6.20485 6.30352 6.42454 6.09375 6.69579 6.09375C6.96704 6.09375 7.18673 6.30352 7.18673 6.5625V12.6562C7.18673 12.9152 6.96704 13.125 6.69579 13.125C6.42454 13.125 6.20485 12.9152 6.20485 12.6562V6.5625ZM3.75013 6.5625C3.75013 6.30352 3.96983 6.09375 4.24107 6.09375C4.51232 6.09375 4.73202 6.30352 4.73202 6.5625V12.6562C4.73202 12.9152 4.51232 13.125 4.24107 13.125C3.96983 13.125 3.75013 12.9152 3.75013 12.6562V6.5625Z" fill="#D15E2A"/>
</svg>
