<svg width="25" height="25" viewBox="0 0 25 25" fill="none" xmlns="http://www.w3.org/2000/svg">
<path fill-rule="evenodd" clip-rule="evenodd" d="M9.16073 4.2787C10.1765 3.29711 11.5488 2.75 12.9746 2.75C14.4004 2.75 15.7727 3.29711 16.7885 4.2787C17.8051 5.26113 18.3812 6.59918 18.3812 8C18.3812 9.40082 17.8051 10.7389 16.7885 11.7213C15.7727 12.7029 14.4004 13.25 12.9746 13.25C11.5488 13.25 10.1765 12.7029 9.16073 11.7213C8.14411 10.7389 7.56803 9.40083 7.56803 8C7.56803 6.59918 8.14411 5.26113 9.16073 4.2787ZM12.9746 4.25C11.9304 4.25 10.9339 4.6511 10.2031 5.35734C9.47316 6.06273 9.06803 7.01388 9.06803 8C9.06803 8.98612 9.47316 9.93727 10.2031 10.6427C10.9339 11.3489 11.9304 11.75 12.9746 11.75C14.0188 11.75 15.0153 11.3489 15.7461 10.6427C16.4761 9.93727 16.8812 8.98612 16.8812 8C16.8812 7.01388 16.4761 6.06273 15.7461 5.35734C15.0153 4.6511 14.0188 4.25 12.9746 4.25ZM4.22461 21.5C4.22461 17.4453 8.32335 14.45 12.9746 14.45C17.6259 14.45 21.7246 17.4453 21.7246 21.5C21.7246 21.9142 21.3888 22.25 20.9746 22.25C20.5604 22.25 20.2246 21.9142 20.2246 21.5C20.2246 18.5887 17.1522 15.95 12.9746 15.95C8.797 15.95 5.72461 18.5887 5.72461 21.5C5.72461 21.9142 5.38882 22.25 4.97461 22.25C4.5604 22.25 4.22461 21.9142 4.22461 21.5Z" fill="#757575"/>
</svg>
