<svg width="25" height="25" viewBox="0 0 25 25" fill="none" xmlns="http://www.w3.org/2000/svg">
<g clip-path="url(#clip0_329_4583)">
<path d="M15.5339 3.76971L20.1248 4.09764L20.125 4.09787L18.7912 4.0073L15.5309 3.78591C15.5307 3.78589 15.5305 3.78588 15.5303 3.78586C15.5287 3.78569 15.5281 3.78539 15.5279 3.78525L15.5279 3.78524C15.5273 3.78494 15.5263 3.78427 15.5253 3.78309C15.5243 3.78191 15.5237 3.78083 15.5235 3.7802C15.5234 3.7799 15.5232 3.77918 15.5233 3.77714C15.5235 3.7751 15.5238 3.77444 15.524 3.77416C15.5243 3.77356 15.525 3.77256 15.5261 3.77154C15.5273 3.77052 15.5284 3.77 15.529 3.76979C15.5293 3.76969 15.5301 3.76942 15.5321 3.76958L15.5339 3.76971ZM13.0191 8.62594L18.9735 4.9602L12.7964 8.81471L12.7715 8.83025L12.7485 8.84859C12.7461 8.85055 12.7426 8.85055 12.7401 8.84859L12.709 8.82367L12.6743 8.80399L8.13878 6.23133L7.81473 6.04752L7.54591 6.30546L3.16239 10.5116L3.15682 10.517L3.15299 10.5209L3.1429 10.5098C3.14175 10.5086 3.14155 10.508 3.14148 10.5078L3.14148 10.5078C3.1413 10.5073 3.14107 10.5063 3.14112 10.505C3.14117 10.5036 3.14147 10.5027 3.14167 10.5022L3.14168 10.5022C3.14175 10.502 3.14199 10.5015 3.14321 10.5003L3.14321 10.5003L3.14478 10.4988L7.8522 5.9939C7.85467 5.99213 7.85798 5.99222 7.86034 5.99409L7.89066 6.0181L7.92431 6.03717L12.5105 8.6352L12.7675 8.7808L13.0191 8.62594ZM19.7817 8.13492L19.9999 5.73902L19.7965 8.15095C19.7963 8.15191 19.7959 8.15279 19.7953 8.15354C19.7887 8.14927 19.7838 8.14264 19.7817 8.13492Z" fill="#289767" stroke="#289767"/>
<mask id="path-2-inside-1_329_4583" fill="white">
<rect x="16.6411" y="9.5" width="6" height="13" rx="1"/>
</mask>
<rect x="16.6411" y="9.5" width="6" height="13" rx="1" fill="#289767" stroke="#289767" stroke-width="3" mask="url(#path-2-inside-1_329_4583)"/>
<mask id="path-3-inside-2_329_4583" fill="white">
<rect x="8.64111" y="12.5" width="6" height="10" rx="1"/>
</mask>
<rect x="8.64111" y="12.5" width="6" height="10" rx="1" fill="#289767" stroke="#289767" stroke-width="3" mask="url(#path-3-inside-2_329_4583)"/>
<mask id="path-4-inside-3_329_4583" fill="white">
<rect x="0.641113" y="15.5" width="6" height="7" rx="1"/>
</mask>
<rect x="0.641113" y="15.5" width="6" height="7" rx="1" fill="#289767" stroke="#289767" stroke-width="3" mask="url(#path-4-inside-3_329_4583)"/>
</g>
<defs>
<clipPath id="clip0_329_4583">
<rect width="24" height="24" fill="white" transform="translate(0.641113 0.5)"/>
</clipPath>
</defs>
</svg>
