<svg width="20" height="15" viewBox="0 0 20 15" fill="none" xmlns="http://www.w3.org/2000/svg">
<path fill-rule="evenodd" clip-rule="evenodd" d="M9.52791 0.873696C15.2944 0.688387 18.6933 6.21199 19.3098 7.31393C19.4796 7.62014 19.4796 7.99472 19.3098 8.30093C18.4858 9.77547 15.3831 14.6014 10.0508 14.7412C9.97074 14.7431 9.89163 14.7441 9.81348 14.7441C4.157 14.7441 0.876761 9.38801 0.268952 8.30093C0.0991514 7.99472 0.0991514 7.62014 0.268952 7.31393C1.09287 5.83939 4.19559 1.01342 9.52791 0.873696ZM9.81353 10.925C8.53952 10.925 7.50315 9.36916 7.50315 7.45661C7.50315 5.54406 8.53952 3.98826 9.81353 3.98826C11.0875 3.98826 12.1239 5.54406 12.1239 7.45661C12.1239 9.36916 11.0875 10.925 9.81353 10.925ZM9.81339 5.97068C9.26747 5.97068 8.82322 6.6376 8.82322 7.45712C8.82322 8.27664 9.26747 8.94356 9.81339 8.94356C10.3593 8.94356 10.8036 8.27664 10.8036 7.45712C10.8036 6.6376 10.3593 5.97068 9.81339 5.97068Z" fill="#2D4982"/>
</svg>
