<svg width="18" height="18" viewBox="0 0 18 18" fill="none" xmlns="http://www.w3.org/2000/svg">
<path d="M9.11823 11.3694C9.69591 11.3694 10.1642 11.9041 10.1642 12.5636C10.1642 13.223 9.69584 13.7577 9.11823 13.7577C8.54063 13.7577 8.07231 13.223 8.07231 12.5636C8.07231 11.9041 8.54056 11.3694 9.11823 11.3694ZM7.41971 17.6975V15.845C7.41971 15.7532 7.46891 15.6971 7.54931 15.6971C7.62978 15.6971 7.67892 15.7532 7.67892 15.845V17.6975H10.5576V15.845C10.5576 15.7532 10.6068 15.6971 10.6872 15.6971C10.7676 15.6971 10.8168 15.7532 10.8168 15.845V17.6975H11.7331V15.5439C11.7331 14.7223 11.143 14.0538 10.4279 14.0538H7.81297C7.09331 14.0538 6.50777 14.7275 6.50777 15.5439V17.6975H7.41971ZM9.11823 0.301758C9.69591 0.301758 10.1642 0.836445 10.1642 1.4959C10.1642 2.15535 9.69584 2.69004 9.11823 2.69004C8.54063 2.69004 8.07231 2.15535 8.07231 1.4959C8.07231 0.836445 8.54056 0.301758 9.11823 0.301758ZM7.41971 6.62988V4.77738C7.41971 4.68551 7.46891 4.62941 7.54931 4.62941C7.62978 4.62941 7.67892 4.68559 7.67892 4.77738V6.62988H10.5576V4.77738C10.5576 4.68551 10.6068 4.62941 10.6872 4.62941C10.7676 4.62941 10.8168 4.68559 10.8168 4.77738V6.62988H11.7331V4.47629C11.7331 3.65465 11.143 2.98613 10.4279 2.98613H7.81297C7.09331 2.98613 6.50777 3.6598 6.50777 4.47629V6.62988H7.41971ZM15.1275 11.3694C15.7052 11.3694 16.1735 11.9041 16.1735 12.5636C16.1735 13.223 15.7051 13.7577 15.1275 13.7577C14.5499 13.7577 14.0816 13.223 14.0816 12.5636C14.0816 11.9041 14.5499 11.3694 15.1275 11.3694ZM13.429 17.6975V15.845C13.429 15.7532 13.4782 15.6971 13.5586 15.6971C13.6391 15.6971 13.6882 15.7532 13.6882 15.845V17.6975H16.5669V15.845C16.5669 15.7532 16.6161 15.6971 16.6965 15.6971C16.7769 15.6971 16.8261 15.7532 16.8261 15.845V17.6975H17.7425V15.5439C17.7425 14.7223 17.1524 14.0538 16.4372 14.0538H13.8223C13.1027 14.0538 12.5171 14.7275 12.5171 15.5439V17.6975H13.429ZM3.10894 11.3694C3.68661 11.3694 4.15486 11.9041 4.15486 12.5636C4.15486 13.223 3.68654 13.7577 3.10894 13.7577C2.53133 13.7577 2.06301 13.223 2.06301 12.5636C2.06301 11.9041 2.53126 11.3694 3.10894 11.3694ZM1.41041 17.6975V15.845C1.41041 15.7532 1.45961 15.6971 1.54001 15.6971C1.62042 15.6971 1.66962 15.7532 1.66962 15.845V17.6975H4.54825V15.845C4.54825 15.7532 4.59745 15.6971 4.67786 15.6971C4.75833 15.6971 4.80746 15.7532 4.80746 15.845V17.6975H5.72378V15.5439C5.72378 14.7223 5.13373 14.0538 4.41858 14.0538H1.80374C1.08408 14.0538 0.498535 14.7275 0.498535 15.5439V17.6975H1.41041ZM9.39421 8.68199V7.41246H8.84678V8.68199H2.83748V10.5765H3.38491V9.30699H8.84678V10.5765H9.39421V9.30699H14.8561V10.5765H15.4035V8.68199H9.39421Z" fill="#3366FF"/>
</svg>
